<?xml version="1.0" encoding="UTF-8" ?>
<!DOCTYPE svg PUBLIC "-//W3C//DTD SVG 1.1//EN" "http://www.w3.org/Graphics/SVG/1.1/DTD/svg11.dtd">
<svg width="1649pt" height="606pt" viewBox="0 0 1649 606" version="1.1" xmlns="http://www.w3.org/2000/svg">
<path fill="#fefffe" d=" M 0.00 0.00 L 1649.00 0.00 L 1649.00 606.00 L 898.58 606.00 C 914.39 605.47 930.22 605.65 946.04 605.37 C 961.37 605.48 976.68 604.55 992.01 604.59 C 1081.09 602.78 1170.17 599.81 1259.04 593.12 C 1283.96 591.11 1308.88 588.89 1333.67 585.58 C 1344.27 584.05 1354.96 582.81 1365.36 580.18 C 1369.85 579.73 1374.36 579.75 1378.88 579.85 C 1378.89 579.16 1378.90 577.79 1378.91 577.10 C 1382.92 575.66 1387.31 574.55 1390.50 571.53 C 1392.06 570.29 1391.90 567.80 1390.34 566.64 C 1387.05 563.82 1382.77 562.66 1378.86 561.05 C 1378.85 535.01 1378.86 508.97 1378.85 482.94 C 1378.89 474.26 1379.76 465.35 1383.64 457.46 C 1390.72 442.72 1404.77 431.01 1421.09 428.28 C 1432.72 426.19 1445.20 427.67 1455.62 433.41 C 1471.21 442.08 1482.67 458.84 1482.79 476.97 C 1482.88 511.24 1482.75 545.51 1482.85 579.78 C 1498.64 579.84 1514.44 579.85 1530.23 579.77 C 1530.23 552.50 1530.23 525.23 1530.23 497.96 C 1530.15 485.60 1530.79 473.15 1528.63 460.92 C 1525.97 445.21 1519.14 430.26 1509.07 417.92 C 1496.85 402.87 1480.78 390.53 1462.17 384.63 C 1443.42 378.69 1422.97 378.41 1403.98 383.41 C 1385.39 388.37 1368.91 399.63 1356.23 413.95 C 1356.24 411.48 1356.27 409.01 1356.31 406.55 C 1339.64 406.19 1322.97 406.51 1306.30 406.38 C 1306.32 395.37 1306.30 384.37 1306.31 373.36 C 1322.95 373.37 1339.59 373.40 1356.22 373.34 C 1356.22 369.77 1356.22 366.21 1356.31 362.64 C 1356.52 336.89 1356.52 311.12 1356.32 285.37 C 1356.16 279.05 1356.25 272.73 1356.26 266.41 C 1356.32 256.74 1356.21 247.06 1356.31 237.39 C 1356.51 228.42 1356.51 219.45 1356.33 210.48 C 1356.24 205.54 1356.23 200.59 1356.29 195.65 C 1356.54 181.30 1356.50 166.94 1356.32 152.59 C 1356.24 147.88 1356.23 143.16 1356.31 138.44 C 1356.51 129.47 1356.51 120.50 1356.32 111.53 C 1356.23 106.79 1356.28 102.04 1356.26 97.30 C 1355.90 86.83 1357.01 76.26 1355.45 65.86 C 1352.31 46.75 1334.48 31.36 1315.08 31.26 C 997.39 31.22 679.70 31.27 362.01 31.23 C 352.18 31.06 342.38 34.55 334.84 40.83 C 325.58 48.38 319.74 60.01 319.45 71.98 C 319.31 80.41 319.55 88.86 319.34 97.30 C 319.22 149.14 319.07 200.98 319.27 252.82 C 319.43 270.60 319.41 288.38 319.45 306.16 C 309.19 309.36 299.62 315.82 294.29 325.33 C 288.81 334.78 288.78 347.15 294.27 356.61 C 299.58 366.13 309.16 372.66 319.45 375.82 C 319.33 385.98 319.54 396.14 319.34 406.30 C 319.16 414.53 319.28 422.78 319.24 431.02 C 319.18 434.73 319.62 438.43 320.39 442.07 C 320.13 442.69 319.88 443.31 319.64 443.95 C 293.06 374.86 266.92 305.60 240.55 236.43 C 239.76 235.18 239.40 233.71 238.51 232.52 C 211.60 303.00 184.85 373.54 157.96 444.03 C 129.29 373.36 100.51 302.75 72.03 232.01 C 54.69 231.53 37.34 231.90 19.99 231.82 C 64.28 344.07 108.92 456.19 153.36 568.39 C 155.07 571.87 155.59 576.10 158.18 579.05 C 185.25 508.39 211.69 437.48 238.69 366.79 C 244.85 381.74 250.21 397.03 256.06 412.12 C 274.56 461.04 293.08 509.97 311.58 558.89 C 305.62 560.60 299.43 561.88 293.95 564.89 C 292.42 565.83 290.47 566.99 290.40 569.01 C 290.24 571.35 292.61 572.66 294.35 573.70 C 299.99 576.61 306.25 578.05 312.39 579.53 C 332.01 583.84 351.99 586.19 371.92 588.45 C 414.53 592.99 457.31 595.72 500.09 598.09 C 553.10 600.77 606.15 602.80 659.22 603.84 C 678.81 604.85 698.43 604.29 718.02 605.21 C 738.13 605.53 758.27 605.33 778.37 606.00 L 0.00 606.00 L 0.00 0.00 Z" />
<path fill="#ffc314" d=" M 334.84 40.83 C 342.38 34.55 352.18 31.06 362.01 31.23 C 679.70 31.27 997.39 31.22 1315.08 31.26 C 1334.48 31.36 1352.31 46.75 1355.45 65.86 C 1357.01 76.26 1355.90 86.83 1356.26 97.30 C 1352.13 97.29 1348.00 97.30 1343.89 97.21 C 1336.57 97.11 1329.25 97.10 1321.94 97.22 C 1317.90 97.31 1313.86 97.31 1309.84 97.22 C 1298.03 97.11 1286.23 97.09 1274.43 97.23 C 1270.29 97.31 1266.16 97.30 1262.04 97.21 C 1254.69 97.11 1247.34 97.10 1240.00 97.22 C 1232.38 97.80 1224.26 95.94 1217.07 99.17 C 1211.75 101.64 1207.09 106.80 1207.23 112.95 C 1207.15 156.98 1207.25 201.01 1207.18 245.04 C 1207.25 249.07 1206.70 253.44 1208.86 257.07 C 1212.21 263.12 1219.21 266.42 1225.98 266.42 C 1237.07 266.47 1248.17 266.39 1259.28 266.43 C 1259.29 313.05 1259.27 359.66 1259.28 406.28 C 1254.52 406.35 1249.75 406.78 1245.01 406.33 C 1242.85 406.43 1242.19 404.13 1241.20 402.70 C 1225.96 374.39 1201.29 351.37 1172.23 337.70 C 1152.22 328.32 1130.13 323.26 1108.02 323.48 C 1076.26 322.97 1044.57 333.30 1018.82 351.80 C 999.04 365.84 983.11 384.87 971.84 406.28 C 968.24 406.47 964.63 406.48 961.04 406.27 C 952.39 394.70 939.91 385.93 925.86 382.36 C 911.69 378.82 896.42 378.89 882.55 383.67 C 870.63 387.82 860.49 396.15 853.17 406.33 C 836.02 406.57 818.87 406.42 801.72 406.40 C 793.10 395.03 780.97 386.17 767.08 382.54 C 751.95 378.63 735.45 378.76 720.80 384.55 C 709.74 388.90 700.53 397.00 693.57 406.51 C 683.31 406.36 673.05 406.49 662.80 406.44 C 655.57 393.97 647.81 381.67 637.69 371.31 C 612.89 344.68 578.18 327.53 541.95 324.09 C 522.89 322.46 503.46 323.73 485.05 329.13 C 445.86 340.07 411.61 367.65 392.64 403.66 C 391.94 405.55 390.00 405.98 388.34 406.70 C 411.32 348.37 434.56 290.13 457.61 231.82 C 450.54 231.77 443.46 231.81 436.39 231.79 C 436.43 192.52 436.40 153.26 436.41 113.99 C 436.85 105.06 428.47 98.09 420.07 97.45 C 386.50 97.06 352.92 97.37 319.34 97.30 C 319.55 88.86 319.31 80.41 319.45 71.98 C 319.74 60.01 325.58 48.38 334.84 40.83 Z" />
<path fill="#59bce6" d=" M 1380.08 39.57 C 1391.75 39.63 1403.42 39.68 1415.10 39.84 C 1416.49 39.66 1417.56 40.63 1418.12 41.82 C 1438.73 78.52 1459.44 115.16 1480.09 151.84 C 1488.68 166.92 1496.99 182.17 1505.76 197.14 C 1486.83 229.96 1467.26 262.42 1448.09 295.10 C 1436.69 314.33 1425.40 333.62 1413.94 352.81 C 1401.62 352.71 1389.31 352.76 1377.00 352.65 C 1407.28 301.39 1437.55 250.11 1467.87 198.86 C 1468.75 197.64 1468.76 196.43 1467.89 195.22 C 1438.58 143.36 1409.48 91.38 1380.08 39.57 Z" />
<path fill="#0fb7ae" d=" M 1444.49 39.51 C 1456.79 39.53 1469.08 39.83 1481.38 39.75 C 1511.36 92.11 1540.62 144.89 1570.43 197.35 C 1551.25 230.17 1531.78 262.82 1512.49 295.58 C 1501.05 314.81 1489.84 334.17 1478.27 353.31 C 1465.96 353.30 1453.67 352.67 1441.37 352.78 C 1470.99 302.53 1500.68 252.31 1530.38 202.10 C 1531.51 199.92 1534.01 197.44 1532.12 194.97 C 1502.90 143.15 1473.72 91.32 1444.49 39.51 Z" />
<path fill="#0d3151" d=" M 1500.55 39.85 C 1512.99 39.74 1525.44 39.51 1537.89 39.57 C 1568.37 91.49 1599.03 143.31 1629.75 195.09 C 1600.35 247.74 1570.50 300.14 1541.05 352.76 C 1528.69 352.76 1516.35 353.38 1503.99 353.26 C 1521.91 320.57 1540.55 288.27 1558.74 255.72 C 1570.07 235.79 1581.14 215.70 1592.61 195.85 C 1562.12 143.73 1531.25 91.84 1500.55 39.85 Z" />
<path fill="#9bdbf2" d=" M 319.34 97.30 C 352.92 97.37 386.50 97.06 420.07 97.45 C 386.58 97.20 353.07 97.26 319.58 97.42 C 319.50 119.28 319.62 141.14 319.48 163.00 C 319.52 164.95 319.43 166.95 319.95 168.85 C 321.49 171.59 323.80 173.79 325.75 176.23 C 345.21 199.78 364.71 223.29 384.18 246.84 C 387.64 251.10 391.40 255.14 394.41 259.75 C 393.49 261.99 392.54 264.22 391.62 266.47 C 387.15 266.45 382.68 266.46 378.22 266.44 C 360.96 245.19 343.32 224.26 325.98 203.08 C 324.07 200.71 322.02 198.46 319.90 196.29 C 319.64 200.82 318.93 205.46 319.91 209.94 C 321.68 213.11 324.37 215.62 326.60 218.46 C 339.75 234.47 353.12 250.32 366.17 266.43 C 354.24 266.47 342.32 266.47 330.39 266.43 C 326.95 261.93 323.59 257.29 319.29 253.55 C 319.29 253.36 319.28 253.00 319.27 252.82 C 319.07 200.98 319.22 149.14 319.34 97.30 Z" />
<path fill="#59bce6" d=" M 485.25 97.39 C 581.83 97.13 678.42 97.35 775.00 97.28 C 780.02 97.37 785.06 97.04 790.07 97.51 C 798.17 98.44 806.18 105.29 805.73 113.93 C 805.73 157.63 805.71 201.32 805.74 245.02 C 805.65 248.88 806.18 252.99 804.29 256.54 C 801.13 262.87 793.92 266.39 787.03 266.42 C 687.34 266.44 587.64 266.41 487.95 266.44 C 480.71 266.61 472.93 263.03 469.74 256.27 C 468.00 252.80 468.46 248.82 468.40 245.08 C 468.43 201.37 468.40 157.66 468.42 113.94 C 467.95 104.86 476.73 97.85 485.25 97.39 Z" />
<path fill="#59bce6" d=" M 837.77 112.94 C 837.98 104.05 846.71 97.62 855.10 97.36 C 864.97 97.13 874.85 97.40 884.73 97.23 C 931.01 153.84 978.06 209.82 1024.34 266.43 C 968.21 266.40 912.08 266.46 855.95 266.40 C 847.08 266.35 837.54 259.49 837.74 249.99 C 837.75 204.31 837.69 158.62 837.77 112.94 Z" />
<path fill="#9bdbf2" d=" M 884.73 97.23 C 892.05 97.09 899.38 97.10 906.71 97.22 C 946.37 145.56 986.39 193.60 1026.20 241.82 C 1032.90 250.03 1039.83 258.06 1046.34 266.42 C 1039.01 266.48 1031.67 266.47 1024.34 266.43 C 978.06 209.82 931.01 153.84 884.73 97.23 Z" />
<path fill="#59bce6" d=" M 906.71 97.22 C 910.71 97.31 914.73 97.31 918.75 97.23 C 958.87 146.10 999.37 194.67 1039.59 243.46 C 1045.86 251.12 1052.36 258.59 1058.40 266.43 C 1054.38 266.42 1050.36 266.43 1046.34 266.42 C 1039.83 258.06 1032.90 250.03 1026.20 241.82 C 986.39 193.60 946.37 145.56 906.71 97.22 Z" />
<path fill="#9bdbf2" d=" M 918.75 97.23 C 930.66 97.10 942.57 97.09 954.48 97.23 C 970.82 117.61 987.76 137.49 1004.29 157.71 C 1030.40 189.26 1056.52 220.81 1082.62 252.37 C 1086.41 257.01 1090.45 261.46 1093.86 266.41 C 1082.04 266.49 1070.22 266.46 1058.40 266.43 C 1052.36 258.59 1045.86 251.12 1039.59 243.46 C 999.37 194.67 958.87 146.10 918.75 97.23 Z" />
<path fill="#59bce6" d=" M 954.48 97.23 C 958.49 97.30 962.50 97.30 966.51 97.23 C 1012.84 153.83 1059.80 209.92 1106.24 266.43 C 1102.11 266.42 1097.98 266.43 1093.86 266.41 C 1090.45 261.46 1086.41 257.01 1082.62 252.37 C 1056.52 220.81 1030.40 189.26 1004.29 157.71 C 987.76 137.49 970.82 117.61 954.48 97.23 Z" />
<path fill="#9bdbf2" d=" M 966.51 97.23 C 973.84 97.09 981.17 97.10 988.49 97.23 C 1034.88 153.78 1081.83 209.88 1128.22 266.43 C 1120.89 266.48 1113.56 266.47 1106.24 266.43 C 1059.80 209.92 1012.84 153.83 966.51 97.23 Z" />
<path fill="#59bce6" d=" M 988.49 97.23 C 1042.01 97.35 1095.52 97.25 1149.04 97.28 C 1154.83 97.33 1161.05 96.68 1166.28 99.73 C 1171.56 102.40 1175.29 107.98 1175.21 113.98 C 1175.24 158.97 1175.20 203.96 1175.23 248.96 C 1175.87 259.65 1164.86 267.26 1154.93 266.44 C 1146.03 266.41 1137.12 266.43 1128.22 266.43 C 1081.83 209.88 1034.88 153.78 988.49 97.23 Z" />
<path fill="#59bce6" d=" M 1217.07 99.17 C 1224.26 95.94 1232.38 97.80 1240.00 97.22 C 1263.66 125.83 1287.31 154.44 1311.00 183.03 C 1314.62 187.52 1318.56 191.77 1321.73 196.62 C 1320.02 196.47 1318.33 196.38 1316.65 196.34 C 1313.64 196.31 1310.64 196.43 1307.65 196.54 C 1307.74 219.83 1307.68 243.12 1307.69 266.42 C 1307.35 266.41 1306.66 266.40 1306.32 266.39 C 1306.29 254.88 1306.39 243.36 1306.27 231.85 C 1290.60 231.81 1274.93 231.61 1259.27 231.95 C 1259.26 243.45 1259.27 254.94 1259.28 266.43 C 1248.17 266.39 1237.07 266.47 1225.98 266.42 C 1219.21 266.42 1212.21 263.12 1208.86 257.07 C 1206.70 253.44 1207.25 249.07 1207.18 245.04 C 1207.25 201.01 1207.15 156.98 1207.23 112.95 C 1207.09 106.80 1211.75 101.64 1217.07 99.17 Z" />
<path fill="#9bdbf2" d=" M 1240.00 97.22 C 1247.34 97.10 1254.69 97.11 1262.04 97.21 C 1287.78 128.39 1313.58 159.51 1339.35 190.66 C 1345.05 197.23 1350.06 204.42 1356.33 210.48 C 1356.51 219.45 1356.51 228.42 1356.31 237.39 C 1351.63 232.48 1347.52 227.07 1343.15 221.90 C 1340.25 218.27 1336.99 214.91 1334.51 210.98 C 1333.46 204.14 1328.20 198.70 1321.73 196.62 C 1318.56 191.77 1314.62 187.52 1311.00 183.03 C 1287.31 154.44 1263.66 125.83 1240.00 97.22 Z" />
<path fill="#59bce6" d=" M 1262.04 97.21 C 1266.16 97.30 1270.29 97.31 1274.43 97.23 C 1284.76 110.60 1295.89 123.35 1306.55 136.47 C 1320.12 152.87 1333.72 169.25 1347.27 185.68 C 1350.06 189.18 1352.87 192.71 1356.29 195.65 C 1356.23 200.59 1356.24 205.54 1356.33 210.48 C 1350.06 204.42 1345.05 197.23 1339.35 190.66 C 1313.58 159.51 1287.78 128.39 1262.04 97.21 Z" />
<path fill="#9bdbf2" d=" M 1274.43 97.23 C 1286.23 97.09 1298.03 97.11 1309.84 97.22 C 1322.63 113.03 1335.77 128.56 1348.65 144.31 C 1350.96 147.28 1353.47 150.11 1356.32 152.59 C 1356.50 166.94 1356.54 181.30 1356.29 195.65 C 1352.87 192.71 1350.06 189.18 1347.27 185.68 C 1333.72 169.25 1320.12 152.87 1306.55 136.47 C 1295.89 123.35 1284.76 110.60 1274.43 97.23 Z" />
<path fill="#59bce6" d=" M 1309.84 97.22 C 1313.86 97.31 1317.90 97.31 1321.94 97.22 C 1329.12 106.27 1336.60 115.07 1343.94 124.00 C 1348.03 128.84 1351.80 133.97 1356.31 138.44 C 1356.23 143.16 1356.24 147.88 1356.32 152.59 C 1353.47 150.11 1350.96 147.28 1348.65 144.31 C 1335.77 128.56 1322.63 113.03 1309.84 97.22 Z" />
<path fill="#9bdbf2" d=" M 1321.94 97.22 C 1329.25 97.10 1336.57 97.11 1343.89 97.21 C 1347.94 102.06 1351.64 107.24 1356.32 111.53 C 1356.51 120.50 1356.51 129.47 1356.31 138.44 C 1351.80 133.97 1348.03 128.84 1343.94 124.00 C 1336.60 115.07 1329.12 106.27 1321.94 97.22 Z" />
<path fill="#59bce6" d=" M 1343.89 97.21 C 1348.00 97.30 1352.13 97.29 1356.26 97.30 C 1356.28 102.04 1356.23 106.79 1356.32 111.53 C 1351.64 107.24 1347.94 102.06 1343.89 97.21 Z" />
<path fill="#59bce6" d=" M 319.58 97.42 C 353.07 97.26 386.58 97.20 420.07 97.45 C 428.47 98.09 436.85 105.06 436.41 113.99 C 436.40 153.26 436.43 192.52 436.39 231.79 C 426.19 231.79 415.99 231.78 405.79 231.78 C 401.78 241.01 398.12 250.39 394.41 259.75 C 391.40 255.14 387.64 251.10 384.18 246.84 C 364.71 223.29 345.21 199.78 325.75 176.23 C 323.80 173.79 321.49 171.59 319.95 168.85 C 319.43 166.95 319.52 164.95 319.48 163.00 C 319.62 141.14 319.50 119.28 319.58 97.42 Z" />
<path fill="#fefffe" d=" M 1307.65 196.54 C 1310.64 196.43 1313.64 196.31 1316.65 196.34 C 1316.71 224.12 1316.44 251.91 1316.78 279.69 C 1313.75 279.83 1310.73 279.77 1307.72 279.77 C 1307.67 275.32 1307.67 270.87 1307.69 266.42 C 1307.68 243.12 1307.74 219.83 1307.65 196.54 Z" />
<path fill="#d0cfc8" d=" M 1316.65 196.34 C 1318.33 196.38 1320.02 196.47 1321.73 196.62 C 1328.20 198.70 1333.46 204.14 1334.51 210.98 C 1334.57 225.31 1334.48 239.64 1334.53 253.97 C 1334.57 258.12 1334.70 262.29 1334.02 266.39 C 1331.70 273.89 1324.70 279.53 1316.78 279.69 C 1316.44 251.91 1316.71 224.12 1316.65 196.34 Z" />
<path fill="#59bce6" d=" M 319.90 196.29 C 322.02 198.46 324.07 200.71 325.98 203.08 C 343.32 224.26 360.96 245.19 378.22 266.44 C 374.20 266.42 370.18 266.42 366.17 266.43 C 353.12 250.32 339.75 234.47 326.60 218.46 C 324.37 215.62 321.68 213.11 319.91 209.94 C 318.93 205.46 319.64 200.82 319.90 196.29 Z" />
<path fill="#59bce6" d=" M 1334.51 210.98 C 1336.99 214.91 1340.25 218.27 1343.15 221.90 C 1347.52 227.07 1351.63 232.48 1356.31 237.39 C 1356.21 247.06 1356.32 256.74 1356.26 266.41 C 1348.84 266.42 1341.43 266.45 1334.02 266.39 C 1334.70 262.29 1334.57 258.12 1334.53 253.97 C 1334.48 239.64 1334.57 225.31 1334.51 210.98 Z" />
<path fill="#0fb7ae" d=" M 19.99 231.82 C 37.34 231.90 54.69 231.53 72.03 232.01 C 100.51 302.75 129.29 373.36 157.96 444.03 C 184.85 373.54 211.60 303.00 238.51 232.52 C 239.40 233.71 239.76 235.18 240.55 236.43 C 266.92 305.60 293.06 374.86 319.64 443.95 C 319.88 443.31 320.13 442.69 320.39 442.07 C 325.27 430.11 330.10 418.15 334.96 406.19 C 353.81 359.60 372.72 313.04 391.62 266.47 C 392.54 264.22 393.49 261.99 394.41 259.75 C 398.12 250.39 401.78 241.01 405.79 231.78 C 415.99 231.78 426.19 231.79 436.39 231.79 C 443.46 231.81 450.54 231.77 457.61 231.82 C 434.56 290.13 411.32 348.37 388.34 406.70 C 379.05 429.65 370.06 452.73 360.90 475.73 C 350.39 502.29 339.83 528.83 329.33 555.39 C 326.11 563.39 323.07 571.47 319.72 579.42 C 316.39 572.84 314.34 565.72 311.58 558.89 C 293.08 509.97 274.56 461.04 256.06 412.12 C 250.21 397.03 244.85 381.74 238.69 366.79 C 211.69 437.48 185.25 508.39 158.18 579.05 C 155.59 576.10 155.07 571.87 153.36 568.39 C 108.92 456.19 64.28 344.07 19.99 231.82 Z" />
<path fill="#0fb7ae" d=" M 1259.27 231.95 C 1274.93 231.61 1290.60 231.81 1306.27 231.85 C 1306.39 243.36 1306.29 254.88 1306.32 266.39 C 1306.31 302.05 1306.31 337.70 1306.31 373.36 C 1306.30 384.37 1306.32 395.37 1306.30 406.38 C 1306.28 429.51 1306.28 452.64 1306.30 475.77 C 1306.32 500.37 1306.29 524.97 1306.32 549.57 C 1306.32 559.64 1306.34 569.72 1306.31 579.79 C 1290.63 579.87 1274.96 579.82 1259.28 579.82 C 1259.27 568.29 1259.28 556.77 1259.28 545.25 C 1259.29 522.09 1259.28 498.93 1259.28 475.77 C 1259.29 452.61 1259.29 429.44 1259.28 406.28 C 1259.27 359.66 1259.29 313.05 1259.28 266.43 C 1259.27 254.94 1259.26 243.45 1259.27 231.95 Z" />
<path fill="#ffc314" d=" M 319.27 252.82 C 319.28 253.00 319.29 253.36 319.29 253.55 C 319.44 257.84 319.42 262.13 319.45 266.42 C 323.09 266.42 326.74 266.42 330.39 266.43 C 342.32 266.47 354.24 266.47 366.17 266.43 C 370.18 266.42 374.20 266.42 378.22 266.44 C 382.68 266.46 387.15 266.45 391.62 266.47 C 372.72 313.04 353.81 359.60 334.96 406.19 C 329.76 406.53 324.54 406.53 319.34 406.30 C 319.54 396.14 319.33 385.98 319.45 375.82 C 319.62 352.60 319.58 329.38 319.45 306.16 C 319.41 288.38 319.43 270.60 319.27 252.82 Z" />
<path fill="#59bce6" d=" M 319.29 253.55 C 323.59 257.29 326.95 261.93 330.39 266.43 C 326.74 266.42 323.09 266.42 319.45 266.42 C 319.42 262.13 319.44 257.84 319.29 253.55 Z" />
<path fill="#ffc314" d=" M 1306.32 266.39 C 1306.66 266.40 1307.35 266.41 1307.69 266.42 C 1307.67 270.87 1307.67 275.32 1307.72 279.77 C 1310.73 279.77 1313.75 279.83 1316.78 279.69 C 1324.70 279.53 1331.70 273.89 1334.02 266.39 C 1341.43 266.45 1348.84 266.42 1356.26 266.41 C 1356.25 272.73 1356.16 279.05 1356.32 285.37 C 1349.86 285.42 1343.40 285.25 1336.95 285.38 C 1332.76 285.33 1328.88 288.00 1326.81 291.53 C 1324.68 303.59 1326.90 315.86 1325.70 327.97 C 1325.85 337.45 1325.12 347.05 1326.81 356.42 C 1328.83 359.99 1332.76 362.72 1336.99 362.63 C 1343.42 362.74 1349.87 362.59 1356.31 362.64 C 1356.22 366.21 1356.22 369.77 1356.22 373.34 C 1339.59 373.40 1322.95 373.37 1306.31 373.36 C 1306.31 337.70 1306.31 302.05 1306.32 266.39 Z" />
<path fill="#d0cfc8" d=" M 1326.81 291.53 C 1328.88 288.00 1332.76 285.33 1336.95 285.38 C 1343.40 285.25 1349.86 285.42 1356.32 285.37 C 1356.52 311.12 1356.52 336.89 1356.31 362.64 C 1349.87 362.59 1343.42 362.74 1336.99 362.63 C 1332.76 362.72 1328.83 359.99 1326.81 356.42 C 1325.12 347.05 1325.85 337.45 1325.70 327.97 C 1326.90 315.86 1324.68 303.59 1326.81 291.53 Z" />
<path fill="#d6a830" d=" M 294.29 325.33 C 299.62 315.82 309.19 309.36 319.45 306.16 C 319.58 329.38 319.62 352.60 319.45 375.82 C 309.16 372.66 299.58 366.13 294.27 356.61 C 288.78 347.15 288.81 334.78 294.29 325.33 Z" />
<path fill="#d6a830" d=" M 485.05 329.13 C 503.46 323.73 522.89 322.46 541.95 324.09 C 578.18 327.53 612.89 344.68 637.69 371.31 C 647.81 381.67 655.57 393.97 662.80 406.44 C 673.05 406.49 683.31 406.36 693.57 406.51 C 679.14 426.11 675.95 454.79 689.36 475.73 C 672.16 475.81 654.95 475.75 637.76 475.77 C 638.19 438.12 617.65 401.17 585.64 381.42 C 553.67 361.02 511.05 358.99 477.26 376.18 C 447.75 390.66 425.67 419.02 418.52 451.06 C 416.56 459.15 416.08 467.48 415.56 475.76 C 397.34 475.78 379.12 475.79 360.90 475.73 C 370.06 452.73 379.05 429.65 388.34 406.70 C 390.00 405.98 391.94 405.55 392.64 403.66 C 411.61 367.65 445.86 340.07 485.05 329.13 Z" />
<path fill="#d6a830" d=" M 1018.82 351.80 C 1044.57 333.30 1076.26 322.97 1108.02 323.48 C 1130.13 323.26 1152.22 328.32 1172.23 337.70 C 1201.29 351.37 1225.96 374.39 1241.20 402.70 C 1242.19 404.13 1242.85 406.43 1245.01 406.33 C 1249.75 406.78 1254.52 406.35 1259.28 406.28 C 1259.29 429.44 1259.29 452.61 1259.28 475.77 C 1245.18 475.75 1231.08 475.82 1216.97 475.73 C 1217.46 442.15 1200.94 408.98 1174.27 388.67 C 1155.44 374.17 1131.75 365.86 1107.93 366.13 C 1082.63 365.67 1057.42 374.88 1037.96 390.96 C 1012.93 411.39 997.73 443.37 998.06 475.72 C 982.52 475.88 966.98 475.65 951.44 475.83 C 939.47 467.02 924.74 462.94 910.16 461.26 C 903.11 460.22 895.39 459.09 889.96 454.06 C 885.33 449.67 886.36 442.57 888.08 437.10 C 889.92 431.08 895.86 427.27 901.94 426.75 C 909.34 426.00 918.00 426.90 923.22 432.83 C 927.11 437.03 927.50 442.99 928.35 448.37 C 943.69 448.16 959.03 448.36 974.37 448.26 C 974.31 433.35 970.26 418.18 961.04 406.27 C 964.63 406.48 968.24 406.47 971.84 406.28 C 983.11 384.87 999.04 365.84 1018.82 351.80 Z" />
<path fill="#fefffe" d=" M 477.26 376.18 C 511.05 358.99 553.67 361.02 585.64 381.42 C 617.65 401.17 638.19 438.12 637.76 475.77 C 654.95 475.75 672.16 475.81 689.36 475.73 C 698.58 490.46 714.22 500.32 730.92 504.43 C 739.53 506.84 748.65 506.76 757.17 509.53 C 760.84 510.79 764.79 512.69 766.57 516.36 C 768.18 520.36 768.09 525.62 764.68 528.69 C 760.78 532.32 755.17 533.11 750.05 533.37 C 743.56 533.78 736.37 532.17 731.93 527.10 C 729.93 524.99 729.47 522.05 728.93 519.33 C 713.51 519.30 698.09 519.30 682.67 519.33 C 682.86 524.15 683.31 528.99 684.39 533.71 C 665.52 534.53 646.62 534.49 627.75 535.21 C 627.75 517.83 627.75 500.44 627.75 483.05 C 627.72 475.39 628.02 467.68 626.70 460.10 C 623.99 439.60 613.86 420.39 599.17 405.94 C 586.86 393.08 571.17 383.30 553.87 378.88 C 533.74 373.78 511.99 374.51 492.49 381.80 C 476.66 387.70 462.93 398.29 451.86 410.92 C 440.34 423.83 432.26 439.89 429.32 456.98 C 425.44 478.47 428.21 501.38 438.36 520.83 C 442.53 528.92 447.93 536.33 454.06 543.04 C 412.37 545.77 370.68 549.23 329.33 555.39 C 339.83 528.83 350.39 502.29 360.90 475.73 C 379.12 475.79 397.34 475.78 415.56 475.76 C 416.08 467.48 416.56 459.15 418.52 451.06 C 425.67 419.02 447.75 390.66 477.26 376.18 Z" />
<path fill="#fefffe" d=" M 1037.96 390.96 C 1057.42 374.88 1082.63 365.67 1107.93 366.13 C 1131.75 365.86 1155.44 374.17 1174.27 388.67 C 1200.94 408.98 1217.46 442.15 1216.97 475.73 C 1231.08 475.82 1245.18 475.75 1259.28 475.77 C 1259.28 498.93 1259.29 522.09 1259.28 545.25 C 1242.06 543.80 1224.81 542.94 1207.59 541.64 C 1207.59 524.43 1207.59 507.21 1207.59 490.00 C 1207.48 480.62 1208.03 471.17 1206.48 461.88 C 1204.22 445.75 1197.55 430.30 1187.47 417.52 C 1174.35 400.87 1156.60 387.34 1136.02 381.54 C 1109.45 374.08 1079.49 377.03 1055.96 391.93 C 1042.51 400.49 1030.92 412.02 1022.24 425.40 C 1001.45 457.87 1002.58 502.95 1025.13 534.27 C 1007.58 534.49 990.05 533.29 972.50 533.52 C 974.80 520.03 973.17 505.56 966.62 493.43 C 962.88 486.57 957.59 480.61 951.44 475.83 C 966.98 475.65 982.52 475.88 998.06 475.72 C 997.73 443.37 1012.93 411.39 1037.96 390.96 Z" />
<path fill="#0d3151" d=" M 492.49 381.80 C 511.99 374.51 533.74 373.78 553.87 378.88 C 571.17 383.30 586.86 393.08 599.17 405.94 C 613.86 420.39 623.99 439.60 626.70 460.10 C 628.02 467.68 627.72 475.39 627.75 483.05 C 627.75 500.44 627.75 517.83 627.75 535.21 C 627.75 548.68 627.76 562.14 627.74 575.60 C 612.05 575.58 596.36 575.66 580.68 575.56 C 580.69 570.69 580.69 565.81 580.66 560.94 C 547.97 581.19 503.12 580.88 471.60 558.43 C 465.20 553.97 459.39 548.72 454.06 543.04 C 447.93 536.33 442.53 528.92 438.36 520.83 C 428.21 501.38 425.44 478.47 429.32 456.98 C 432.26 439.89 440.34 423.83 451.86 410.92 C 462.93 398.29 476.66 387.70 492.49 381.80 Z" />
<path fill="#0d3151" d=" M 1055.96 391.93 C 1079.49 377.03 1109.45 374.08 1136.02 381.54 C 1156.60 387.34 1174.35 400.87 1187.47 417.52 C 1197.55 430.30 1204.22 445.75 1206.48 461.88 C 1208.03 471.17 1207.48 480.62 1207.59 490.00 C 1207.59 507.21 1207.59 524.43 1207.59 541.64 C 1207.59 553.63 1207.59 565.63 1207.59 577.62 C 1191.90 577.62 1176.22 577.65 1160.53 577.61 C 1160.53 572.71 1160.54 567.82 1160.50 562.93 C 1128.46 582.78 1084.74 582.94 1053.31 561.76 C 1042.37 554.39 1032.81 544.98 1025.13 534.27 C 1002.58 502.95 1001.45 457.87 1022.24 425.40 C 1030.92 412.02 1042.51 400.49 1055.96 391.93 Z" />
<path fill="#0fb7ae" d=" M 720.80 384.55 C 735.45 378.76 751.95 378.63 767.08 382.54 C 780.97 386.17 793.10 395.03 801.72 406.40 C 810.67 418.34 815.23 433.44 814.64 448.34 C 799.32 448.20 784.00 448.32 768.68 448.28 C 768.29 441.66 766.87 434.11 760.89 430.21 C 753.92 425.90 744.79 425.46 737.15 428.11 C 728.99 431.13 726.29 441.00 727.54 448.87 C 728.43 452.91 731.91 455.78 735.53 457.43 C 742.56 460.75 750.45 461.01 757.99 462.33 C 770.09 464.37 782.03 468.54 791.99 475.84 C 803.50 484.43 811.32 497.72 813.25 511.95 C 814.11 518.72 814.13 525.61 813.26 532.39 C 811.16 545.66 803.14 557.49 792.39 565.36 C 779.25 575.47 762.50 580.43 745.98 579.81 C 718.49 580.10 690.91 560.92 684.39 533.71 C 683.31 528.99 682.86 524.15 682.67 519.33 C 698.09 519.30 713.51 519.30 728.93 519.33 C 729.47 522.05 729.93 524.99 731.93 527.10 C 736.37 532.17 743.56 533.78 750.05 533.37 C 755.17 533.11 760.78 532.32 764.68 528.69 C 768.09 525.62 768.18 520.36 766.57 516.36 C 764.79 512.69 760.84 510.79 757.17 509.53 C 748.65 506.76 739.53 506.84 730.92 504.43 C 714.22 500.32 698.58 490.46 689.36 475.73 C 675.95 454.79 679.14 426.11 693.57 406.51 C 700.53 397.00 709.74 388.90 720.80 384.55 Z" />
<path fill="#0fb7ae" d=" M 882.55 383.67 C 896.42 378.89 911.69 378.82 925.86 382.36 C 939.91 385.93 952.39 394.70 961.04 406.27 C 970.26 418.18 974.31 433.35 974.37 448.26 C 959.03 448.36 943.69 448.16 928.35 448.37 C 927.50 442.99 927.11 437.03 923.22 432.83 C 918.00 426.90 909.34 426.00 901.94 426.75 C 895.86 427.27 889.92 431.08 888.08 437.10 C 886.36 442.57 885.33 449.67 889.96 454.06 C 895.39 459.09 903.11 460.22 910.16 461.26 C 924.74 462.94 939.47 467.02 951.44 475.83 C 957.59 480.61 962.88 486.57 966.62 493.43 C 973.17 505.56 974.80 520.03 972.50 533.52 C 969.92 547.96 960.23 560.27 948.05 568.04 C 932.10 578.81 911.85 581.93 893.09 578.65 C 869.80 574.12 848.51 556.08 843.54 532.37 C 842.58 528.08 842.29 523.70 842.24 519.32 C 857.59 519.30 872.94 519.31 888.28 519.31 C 889.03 523.06 890.24 527.11 893.67 529.29 C 898.84 533.43 905.76 533.02 911.99 532.87 C 916.24 532.82 920.73 531.82 923.98 528.91 C 927.56 525.79 927.50 520.25 925.93 516.14 C 921.72 509.54 913.17 508.40 906.07 507.22 C 892.06 505.65 877.95 501.86 866.25 493.72 C 859.30 489.00 853.31 482.87 848.83 475.76 C 835.36 454.75 838.57 425.92 853.17 406.33 C 860.49 396.15 870.63 387.82 882.55 383.67 Z" />
<path fill="#0fb7ae" d=" M 1403.98 383.41 C 1422.97 378.41 1443.42 378.69 1462.17 384.63 C 1480.78 390.53 1496.85 402.87 1509.07 417.92 C 1519.14 430.26 1525.97 445.21 1528.63 460.92 C 1530.79 473.15 1530.15 485.60 1530.23 497.96 C 1530.23 525.23 1530.23 552.50 1530.23 579.77 C 1514.44 579.85 1498.64 579.84 1482.85 579.78 C 1482.75 545.51 1482.88 511.24 1482.79 476.97 C 1482.67 458.84 1471.21 442.08 1455.62 433.41 C 1445.20 427.67 1432.72 426.19 1421.09 428.28 C 1404.77 431.01 1390.72 442.72 1383.64 457.46 C 1379.76 465.35 1378.89 474.26 1378.85 482.94 C 1378.86 508.97 1378.85 535.01 1378.86 561.05 C 1378.77 566.40 1378.95 571.75 1378.91 577.10 C 1378.90 577.79 1378.89 579.16 1378.88 579.85 C 1374.36 579.75 1369.85 579.73 1365.36 580.18 C 1354.16 579.43 1342.92 580.00 1331.70 579.83 C 1331.64 570.70 1331.68 561.56 1331.68 552.43 C 1331.89 525.52 1331.27 498.60 1332.01 471.70 C 1333.22 450.41 1341.99 429.80 1356.23 413.95 C 1368.91 399.63 1385.39 388.37 1403.98 383.41 Z" />
<path fill="#0fb7ae" d=" M 1578.44 380.66 C 1585.48 379.04 1593.20 379.86 1599.53 383.44 C 1608.32 388.78 1615.01 398.43 1614.66 409.01 C 1615.74 425.09 1601.16 440.23 1585.00 439.51 C 1569.67 439.75 1555.89 426.26 1555.55 410.99 C 1554.61 397.12 1564.91 383.62 1578.44 380.66 Z" />
<path fill="#d6a830" d=" M 319.34 406.30 C 324.54 406.53 329.76 406.53 334.96 406.19 C 330.10 418.15 325.27 430.11 320.39 442.07 C 319.62 438.43 319.18 434.73 319.24 431.02 C 319.28 422.78 319.16 414.53 319.34 406.30 Z" />
<path fill="#d6a830" d=" M 801.72 406.40 C 818.87 406.42 836.02 406.57 853.17 406.33 C 838.57 425.92 835.36 454.75 848.83 475.76 C 829.88 475.82 810.93 475.65 791.99 475.84 C 782.03 468.54 770.09 464.37 757.99 462.33 C 750.45 461.01 742.56 460.75 735.53 457.43 C 731.91 455.78 728.43 452.91 727.54 448.87 C 726.29 441.00 728.99 431.13 737.15 428.11 C 744.79 425.46 753.92 425.90 760.89 430.21 C 766.87 434.11 768.29 441.66 768.68 448.28 C 784.00 448.32 799.32 448.20 814.64 448.34 C 815.23 433.44 810.67 418.34 801.72 406.40 Z" />
<path fill="#d6a830" d=" M 1306.30 406.38 C 1322.97 406.51 1339.64 406.19 1356.31 406.55 C 1356.27 409.01 1356.24 411.48 1356.23 413.95 C 1341.99 429.80 1333.22 450.41 1332.01 471.70 C 1323.99 475.50 1315.03 476.10 1306.30 475.77 C 1306.28 452.64 1306.28 429.51 1306.30 406.38 Z" />
<path fill="#fefffe" d=" M 519.02 424.01 C 531.65 422.01 545.16 424.35 555.92 431.42 C 568.98 439.93 578.69 454.23 579.79 470.00 C 579.93 476.04 580.24 482.21 578.71 488.13 C 575.46 501.89 566.05 513.87 553.98 521.06 C 543.26 527.48 530.25 529.00 518.05 527.14 C 502.70 524.43 489.04 514.21 481.73 500.50 C 474.54 487.30 473.64 470.99 478.85 456.93 C 485.23 439.96 501.02 426.75 519.02 424.01 Z" />
<path fill="#fefffe" d=" M 1094.61 426.86 C 1107.94 423.66 1122.61 425.44 1134.40 432.60 C 1144.61 438.85 1152.90 448.49 1156.96 459.81 C 1159.99 467.86 1160.23 476.62 1159.47 485.10 C 1156.69 506.46 1139.22 525.02 1118.03 528.99 C 1107.37 530.73 1096.05 530.11 1086.13 525.53 C 1072.62 519.43 1061.94 507.37 1057.61 493.18 C 1053.68 479.83 1054.82 464.84 1061.58 452.58 C 1068.42 439.96 1080.66 430.33 1094.61 426.86 Z" />
<path fill="#0fb7ae" d=" M 1561.71 460.68 C 1577.34 460.63 1592.98 460.71 1608.62 460.64 C 1608.81 500.36 1608.65 540.09 1608.70 579.81 C 1593.03 579.82 1577.36 579.83 1561.70 579.80 C 1561.69 540.10 1561.66 500.39 1561.71 460.68 Z" />
<path fill="#fefffe" d=" M 1306.30 475.77 C 1315.03 476.10 1323.99 475.50 1332.01 471.70 C 1331.27 498.60 1331.89 525.52 1331.68 552.43 C 1323.22 551.51 1314.79 550.38 1306.32 549.57 C 1306.29 524.97 1306.32 500.37 1306.30 475.77 Z" />
<path fill="#fefffe" d=" M 791.99 475.84 C 810.93 475.65 829.88 475.82 848.83 475.76 C 853.31 482.87 859.30 489.00 866.25 493.72 C 877.95 501.86 892.06 505.65 906.07 507.22 C 913.17 508.40 921.72 509.54 925.93 516.14 C 927.50 520.25 927.56 525.79 923.98 528.91 C 920.73 531.82 916.24 532.82 911.99 532.87 C 905.76 533.02 898.84 533.43 893.67 529.29 C 890.24 527.11 889.03 523.06 888.28 519.31 C 872.94 519.31 857.59 519.30 842.24 519.32 C 842.29 523.70 842.58 528.08 843.54 532.37 C 833.44 532.41 823.35 532.47 813.26 532.39 C 814.13 525.61 814.11 518.72 813.25 511.95 C 811.32 497.72 803.50 484.43 791.99 475.84 Z" />
<path fill="#d0cfc8" d=" M 813.26 532.39 C 823.35 532.47 833.44 532.41 843.54 532.37 C 848.51 556.08 869.80 574.12 893.09 578.65 C 911.85 581.93 932.10 578.81 948.05 568.04 C 960.23 560.27 969.92 547.96 972.50 533.52 C 990.05 533.29 1007.58 534.49 1025.13 534.27 C 1032.81 544.98 1042.37 554.39 1053.31 561.76 C 1084.74 582.94 1128.46 582.78 1160.50 562.93 C 1160.54 567.82 1160.53 572.71 1160.53 577.61 C 1176.22 577.65 1191.90 577.62 1207.59 577.62 C 1207.59 565.63 1207.59 553.63 1207.59 541.64 C 1224.81 542.94 1242.06 543.80 1259.28 545.25 C 1259.28 556.77 1259.27 568.29 1259.28 579.82 C 1274.96 579.82 1290.63 579.87 1306.31 579.79 C 1306.34 569.72 1306.32 559.64 1306.32 549.57 C 1314.79 550.38 1323.22 551.51 1331.68 552.43 C 1331.68 561.56 1331.64 570.70 1331.70 579.83 C 1342.92 580.00 1354.16 579.43 1365.36 580.18 C 1354.96 582.81 1344.27 584.05 1333.67 585.58 C 1308.88 588.89 1283.96 591.11 1259.04 593.12 C 1170.17 599.81 1081.09 602.78 992.01 604.59 C 976.68 604.55 961.37 605.48 946.04 605.37 C 930.22 605.65 914.39 605.47 898.58 606.00 L 778.37 606.00 C 758.27 605.33 738.13 605.53 718.02 605.21 C 698.43 604.29 678.81 604.85 659.22 603.84 C 606.15 602.80 553.10 600.77 500.09 598.09 C 457.31 595.72 414.53 592.99 371.92 588.45 C 351.99 586.19 332.01 583.84 312.39 579.53 C 306.25 578.05 299.99 576.61 294.35 573.70 C 292.61 572.66 290.24 571.35 290.40 569.01 C 290.47 566.99 292.42 565.83 293.95 564.89 C 299.43 561.88 305.62 560.60 311.58 558.89 C 314.34 565.72 316.39 572.84 319.72 579.42 C 323.07 571.47 326.11 563.39 329.33 555.39 C 370.68 549.23 412.37 545.77 454.06 543.04 C 459.39 548.72 465.20 553.97 471.60 558.43 C 503.12 580.88 547.97 581.19 580.66 560.94 C 580.69 565.81 580.69 570.69 580.68 575.56 C 596.36 575.66 612.05 575.58 627.74 575.60 C 627.76 562.14 627.75 548.68 627.75 535.21 C 646.62 534.49 665.52 534.53 684.39 533.71 C 690.91 560.92 718.49 580.10 745.98 579.81 C 762.50 580.43 779.25 575.47 792.39 565.36 C 803.14 557.49 811.16 545.66 813.26 532.39 Z" />
<path fill="#d0cfc8" d=" M 1378.86 561.05 C 1382.77 562.66 1387.05 563.82 1390.34 566.64 C 1391.90 567.80 1392.06 570.29 1390.50 571.53 C 1387.31 574.55 1382.92 575.66 1378.91 577.10 C 1378.95 571.75 1378.77 566.40 1378.86 561.05 Z" />
</svg>
